<?xml version="1.0" encoding="UTF-8"?> <svg xmlns="http://www.w3.org/2000/svg" width="70" height="71" viewBox="0 0 70 71" fill="none"><rect width="70" height="70" transform="translate(0 0.108765)" fill="url(#paint0_linear_5482_52855)" fill-opacity="0.9"></rect><path d="M29.2746 39.5338C29.0418 39.768 28.9111 40.0848 28.9111 40.415C28.9111 40.7452 29.0418 41.0621 29.2746 41.2963C29.3908 41.4134 29.5291 41.5064 29.6814 41.5699C29.8337 41.6333 29.9971 41.666 30.1621 41.666C30.3271 41.666 30.4905 41.6333 30.6428 41.5699C30.7952 41.5064 30.9334 41.4134 31.0496 41.2963C31.2824 41.0621 31.4131 40.7452 31.4131 40.415C31.4131 40.0848 31.2824 39.768 31.0496 39.5338C30.9334 39.4166 30.7952 39.3236 30.6428 39.2601C30.4905 39.1967 30.3271 39.164 30.1621 39.164C29.9971 39.164 29.8337 39.1967 29.6814 39.2601C29.5291 39.3236 29.3908 39.4166 29.2746 39.5338ZM29.2746 28.9213C29.0418 29.1555 28.9111 29.4723 28.9111 29.8025C28.9111 30.1327 29.0418 30.4496 29.2746 30.6838C29.3908 30.8009 29.5291 30.8939 29.6814 30.9574C29.8337 31.0208 29.9971 31.0535 30.1621 31.0535C30.3271 31.0535 30.4905 31.0208 30.6428 30.9574C30.7952 30.8939 30.9334 30.8009 31.0496 30.6838C31.2824 30.4496 31.4131 30.1327 31.4131 29.8025C31.4131 29.4723 31.2824 29.1555 31.0496 28.9213C30.9334 28.8041 30.7952 28.7111 30.6428 28.6476C30.4905 28.5842 30.3271 28.5515 30.1621 28.5515C29.9971 28.5515 29.8337 28.5842 29.6814 28.6476C29.5291 28.7111 29.3908 28.8041 29.2746 28.9213ZM35.4621 41.4213C35.2149 41.4213 34.9732 41.4946 34.7677 41.6319C34.5621 41.7693 34.4019 41.9645 34.3073 42.1929C34.2127 42.4213 34.1879 42.6726 34.2361 42.9151C34.2844 43.1576 34.4034 43.3803 34.5782 43.5551C34.7531 43.73 34.9758 43.849 35.2183 43.8972C35.4607 43.9455 35.7121 43.9207 35.9405 43.8261C36.1689 43.7315 36.3641 43.5713 36.5015 43.3657C36.6388 43.1602 36.7121 42.9185 36.7121 42.6713C36.7206 42.5019 36.6945 42.3326 36.6355 42.1737C36.5765 42.0147 36.4858 41.8695 36.3689 41.7467C36.2519 41.6239 36.1113 41.5262 35.9554 41.4595C35.7995 41.3928 35.6317 41.3585 35.4621 41.3588V41.4213ZM27.9621 33.9213C27.7149 33.9213 27.4732 33.9946 27.2677 34.1319C27.0621 34.2693 26.9019 34.4645 26.8073 34.6929C26.7127 34.9213 26.6879 35.1726 26.7361 35.4151C26.7844 35.6576 26.9034 35.8803 27.0782 36.0551C27.2531 36.23 27.4758 36.349 27.7183 36.3972C27.9607 36.4455 28.2121 36.4207 28.4405 36.3261C28.6689 36.2315 28.8641 36.0713 29.0015 35.8657C29.1388 35.6602 29.2121 35.4185 29.2121 35.1713C29.2206 35.0019 29.1945 34.8326 29.1355 34.6737C29.0765 34.5147 28.9858 34.3695 28.8689 34.2467C28.7519 34.1239 28.6113 34.0262 28.4554 33.9595C28.2995 33.8928 28.1317 33.8585 27.9621 33.8588V33.9213ZM35.4621 26.4213C35.2149 26.4213 34.9732 26.4946 34.7677 26.6319C34.5621 26.7693 34.4019 26.9645 34.3073 27.1929C34.2127 27.4213 34.1879 27.6726 34.2361 27.9151C34.2844 28.1576 34.4034 28.3803 34.5782 28.5551C34.7531 28.73 34.9758 28.849 35.2183 28.8972C35.4607 28.9455 35.7121 28.9207 35.9405 28.8261C36.1689 28.7315 36.3641 28.5713 36.5015 28.3657C36.6388 28.1602 36.7121 27.9185 36.7121 27.6713C36.7206 27.5019 36.6945 27.3326 36.6355 27.1737C36.5765 27.0147 36.4858 26.8695 36.3689 26.7467C36.2519 26.6239 36.1113 26.5262 35.9554 26.4595C35.7995 26.3928 35.6317 26.3585 35.4621 26.3588V26.4213ZM39.8871 28.9838C39.7116 29.1583 39.5918 29.381 39.5429 29.6237C39.4941 29.8663 39.5184 30.1181 39.6128 30.3469C39.7072 30.5757 39.8674 30.7714 40.0731 30.9091C40.2789 31.0468 40.5208 31.1203 40.7684 31.1203C41.0159 31.1203 41.2579 31.0468 41.4636 30.9091C41.6693 30.7714 41.8295 30.5757 41.9239 30.3469C42.0183 30.1181 42.0427 29.8663 41.9938 29.6237C41.945 29.381 41.8252 29.1583 41.6496 28.9838C41.4238 28.7424 41.1116 28.6004 40.7813 28.5887C40.451 28.577 40.1295 28.6966 39.8871 28.9213V28.9838ZM47.7621 28.9838C46.6193 26.6991 44.8626 24.778 42.6891 23.4359C40.5156 22.0937 38.0112 21.3836 35.4566 21.3851C32.9021 21.3867 30.3985 22.0998 28.2266 23.4445C26.0547 24.7893 24.3003 26.7125 23.1602 28.9985C22.0201 31.2844 21.5394 33.8428 21.7719 36.3868C22.0045 38.9307 22.9411 41.3595 24.4767 43.4009C26.0124 45.4423 28.0863 47.0156 30.4661 47.9443C32.8458 48.873 35.4372 49.1204 37.9496 48.6588C38.5814 48.5399 39.1832 48.2962 39.7198 47.9421C40.2563 47.588 40.7169 47.1304 41.0746 46.5963C41.4601 46.0155 41.726 45.3638 41.8569 44.6792C41.9878 43.9946 41.9811 43.2907 41.8371 42.6088C41.7584 42.1966 41.7166 41.7783 41.7121 41.3588C41.7176 40.1475 42.075 38.9638 42.7407 37.9519C43.4065 36.9399 44.3519 36.1433 45.4621 35.6588C46.0607 35.3907 46.598 35.0029 47.0409 34.5192C47.4838 34.0355 47.8228 33.4661 48.0371 32.8463C48.2539 32.2129 48.3412 31.5424 48.294 30.8746C48.2467 30.2068 48.0659 29.5553 47.7621 28.9588V28.9838ZM45.6371 32.0338C45.5305 32.3329 45.3649 32.6076 45.1502 32.8416C44.9355 33.0757 44.676 33.2643 44.3871 33.3963C42.8496 34.0845 41.5434 35.2019 40.6255 36.6144C39.7075 38.0268 39.2167 39.6742 39.2121 41.3588C39.214 41.9464 39.2726 42.5324 39.3871 43.1088C39.4635 43.461 39.4685 43.825 39.402 44.1792C39.3354 44.5334 39.1986 44.8707 38.9996 45.1713C38.8313 45.4343 38.6097 45.6591 38.3492 45.8313C38.0887 46.0036 37.7951 46.1193 37.4871 46.1713C36.8194 46.2967 36.1415 46.3595 35.4621 46.3588C33.9548 46.3595 32.4628 46.0573 31.0745 45.4702C29.6863 44.8831 28.4302 44.023 27.3808 42.9409C26.3315 41.8589 25.5102 40.5771 24.9659 39.1715C24.4216 37.7659 24.1652 36.2653 24.2121 34.7588C24.3091 31.9497 25.4484 29.2774 27.4079 27.2625C29.3674 25.2475 32.0069 24.0341 34.8121 23.8588H35.4496C37.5443 23.8593 39.5973 24.4446 41.3773 25.5488C43.1573 26.6531 44.5937 28.2323 45.5246 30.1088C45.8112 30.7025 45.8516 31.3854 45.6371 32.0088V32.0338ZM35.4621 33.8588C35.2149 33.8588 34.9732 33.9321 34.7677 34.0694C34.5621 34.2068 34.4019 34.402 34.3073 34.6304C34.2127 34.8588 34.1879 35.1101 34.2361 35.3526C34.2844 35.5951 34.4034 35.8178 34.5782 35.9926C34.7531 36.1675 34.9758 36.2865 35.2183 36.3347C35.4607 36.383 35.7121 36.3582 35.9405 36.2636C36.1689 36.169 36.3641 36.0088 36.5015 35.8032C36.6388 35.5977 36.7121 35.356 36.7121 35.1088C36.7121 34.7772 36.5804 34.4593 36.346 34.2249C36.1116 33.9905 35.7936 33.8588 35.4621 33.8588Z" fill="white"></path><defs><linearGradient id="paint0_linear_5482_52855" x1="-1.91702e-08" y1="34.9206" x2="70" y2="34.9206" gradientUnits="userSpaceOnUse"><stop stop-color="#EC4899"></stop><stop offset="1" stop-color="#FF6FB8"></stop></linearGradient></defs></svg> 