<?xml version="1.0" encoding="UTF-8"?> <svg xmlns="http://www.w3.org/2000/svg" width="118" height="119" viewBox="0 0 118 119" fill="none"><path d="M107.675 47.6415C106.692 45.1832 103.742 44.1999 101.284 45.1832L87.0255 52.0665L76.7005 41.7415L66.3755 31.4165L73.2588 17.1582C74.2421 14.6999 73.2588 11.7499 70.8005 10.7665C68.3421 9.78319 65.3921 10.7665 64.4088 13.2249L57.0338 28.4665L25.5671 33.3832C23.6005 33.8749 22.1255 35.3499 21.6338 37.3165L9.83379 94.3499C9.34212 95.8249 9.83379 97.7915 11.3088 98.7749L19.6671 107.133C20.6505 108.117 22.1255 108.608 23.1088 108.608H24.0921L81.1255 96.8082C83.0921 96.3165 84.5671 94.8415 85.0588 92.8749L89.9754 61.4082L105.217 54.0332C107.675 53.0499 108.659 50.0999 107.675 47.6415ZM75.7171 87.9582L27.5338 97.7915L45.7255 79.5999C53.1005 83.0415 61.9505 80.0915 65.3921 72.7165C68.8338 65.3415 65.8838 56.4915 58.5088 53.0499C53.1005 50.5915 46.2171 51.5749 41.7921 55.9999C37.3671 60.4249 36.3838 67.3082 38.8421 72.7165L20.6505 90.9082L30.4838 42.7249L59.0005 37.8082L69.8171 48.6249L80.6338 59.4415L75.7171 87.9582ZM47.2005 66.3249C47.2005 64.8499 47.6921 63.8665 48.6755 62.8832C50.6421 60.9165 53.5921 60.9165 55.5588 62.8832C57.5255 64.8499 57.5255 67.7999 55.5588 69.7665C53.5921 71.7332 50.6421 71.7332 48.6755 69.7665C47.6921 68.7832 47.2005 67.3082 47.2005 66.3249Z" fill="white"></path></svg> 