<?xml version="1.0" encoding="UTF-8"?> <svg xmlns="http://www.w3.org/2000/svg" width="118" height="119" viewBox="0 0 118 119" fill="none"><path d="M59.0003 53.7089C60.9452 53.7089 62.8463 53.1322 64.4634 52.0517C66.0805 50.9712 67.3409 49.4354 68.0851 47.6386C68.8294 45.8418 69.0241 43.8646 68.6447 41.9572C68.2653 40.0497 67.3288 38.2976 65.9535 36.9223C64.5783 35.5471 62.8262 34.6106 60.9187 34.2312C59.0112 33.8517 57.0341 34.0465 55.2373 34.7907C53.4405 35.535 51.9047 36.7954 50.8242 38.4124C49.7437 40.0295 49.167 41.9307 49.167 43.8756C49.167 46.4835 50.203 48.9847 52.0471 50.8288C53.8912 52.6729 56.3924 53.7089 59.0003 53.7089ZM55.5095 87.6831C55.9666 88.1439 56.5103 88.5097 57.1095 88.7593C57.7086 89.0089 58.3513 89.1374 59.0003 89.1374C59.6494 89.1374 60.292 89.0089 60.8912 88.7593C61.4903 88.5097 62.0341 88.1439 62.4912 87.6831L82.6003 67.5247C87.2709 62.8566 90.4522 56.9081 91.7418 50.4317C93.0313 43.9554 92.3712 37.242 89.8449 31.1408C87.3187 25.0397 83.0398 19.8247 77.5494 16.1557C72.059 12.4866 65.6038 10.5282 59.0003 10.5282C52.3968 10.5282 45.9416 12.4866 40.4513 16.1557C34.9609 19.8247 30.682 25.0397 28.1557 31.1408C25.6295 37.242 24.9694 43.9554 26.2589 50.4317C27.5485 56.9081 30.7297 62.8566 35.4003 67.5247L55.5095 87.6831ZM35.5478 41.6139C35.8838 38.1084 36.9983 34.7222 38.8102 31.7025C40.622 28.6827 43.0853 26.1058 46.0203 24.1597C49.876 21.6281 54.3878 20.2793 59.0003 20.2793C63.6128 20.2793 68.1247 21.6281 71.9803 24.1597C74.8957 26.0991 77.3451 28.6604 79.1524 31.6595C80.9597 34.6586 82.0799 38.0209 82.4325 41.5047C82.7851 44.9884 82.3613 48.507 81.1917 51.8074C80.022 55.1078 78.1355 58.108 75.6678 60.5922L59.0003 77.2597L42.3328 60.5922C39.8623 58.1321 37.9714 55.1521 36.7977 51.8691C35.624 48.5861 35.197 45.0827 35.5478 41.6139ZM93.417 98.9422H24.5837C23.2797 98.9422 22.0291 99.4602 21.1071 100.382C20.185 101.304 19.667 102.555 19.667 103.859C19.667 105.163 20.185 106.413 21.1071 107.336C22.0291 108.258 23.2797 108.776 24.5837 108.776H93.417C94.721 108.776 95.9715 108.258 96.8936 107.336C97.8157 106.413 98.3337 105.163 98.3337 103.859C98.3337 102.555 97.8157 101.304 96.8936 100.382C95.9715 99.4602 94.721 98.9422 93.417 98.9422Z" fill="white"></path></svg> 