<?xml version="1.0" encoding="UTF-8"?> <svg xmlns="http://www.w3.org/2000/svg" width="118" height="119" viewBox="0 0 118 119" fill="none"><path d="M104.823 47.563L95.5305 44.4655L99.9063 35.7139C100.35 34.7978 100.498 33.7667 100.331 32.7628C100.164 31.7588 99.6889 30.8315 98.9722 30.1089L88.4997 19.6364C87.7732 18.9091 86.837 18.4279 85.8228 18.2603C84.8086 18.0928 83.7673 18.2473 82.8455 18.7022L74.0938 23.078L70.9963 13.7855C70.6692 12.8169 70.0483 11.9744 69.2199 11.3751C68.3916 10.7759 67.397 10.4498 66.3747 10.4422H51.6247C50.5939 10.4396 49.5884 10.7609 48.7503 11.3609C47.9121 11.9608 47.2837 12.809 46.9539 13.7855L43.8564 23.078L35.1047 18.7022C34.1886 18.2586 33.1575 18.1103 32.1536 18.2776C31.1496 18.4449 30.2224 18.9197 29.4997 19.6364L19.0272 30.1089C18.2999 30.8354 17.8187 31.7716 17.6511 32.7858C17.4836 33.8 17.6381 34.8412 18.093 35.763L22.4689 44.5147L13.1764 47.6122C12.2077 47.9393 11.3652 48.5603 10.766 49.3886C10.1667 50.217 9.84062 51.2115 9.83302 52.2339V66.9839C9.83036 68.0146 10.1517 69.0201 10.7517 69.8583C11.3516 70.6965 12.1998 71.3249 13.1764 71.6547L22.4689 74.7522L18.093 83.5039C17.6494 84.4199 17.5011 85.451 17.6684 86.455C17.8357 87.4589 18.3105 88.3862 19.0272 89.1089L29.4997 99.5814C30.2262 100.309 31.1624 100.79 32.1766 100.957C33.1908 101.125 34.232 100.97 35.1539 100.516L43.9055 96.1397L47.003 105.432C47.3329 106.409 47.9613 107.257 48.7994 107.857C49.6376 108.457 50.6431 108.778 51.6739 108.776H66.4239C67.4546 108.778 68.4601 108.457 69.2983 107.857C70.1364 107.257 70.7648 106.409 71.0947 105.432L74.1922 96.1397L82.9438 100.516C83.854 100.948 84.8751 101.09 85.8688 100.923C86.8626 100.756 87.781 100.288 88.4997 99.5814L98.9722 89.1089C99.6994 88.3824 100.181 87.4462 100.348 86.432C100.516 85.4178 100.361 84.3765 99.9063 83.4547L95.5305 74.703L104.823 71.6055C105.792 71.2784 106.634 70.6575 107.233 69.8291C107.833 69.0008 108.159 68.0062 108.166 66.9839V52.2339C108.169 51.2031 107.848 50.1976 107.248 49.3595C106.648 48.5213 105.8 47.8929 104.823 47.563ZM98.333 63.4439L92.433 65.4105C91.0763 65.8506 89.8316 66.5806 88.7851 67.5498C87.7387 68.519 86.9156 69.7042 86.373 71.0233C85.8304 72.3424 85.5813 73.7637 85.6429 75.1887C85.7045 76.6137 86.0753 78.0082 86.7297 79.2755L89.5322 84.8805L84.1238 90.2889L78.6663 87.3389C77.4055 86.7107 76.0244 86.3608 74.6165 86.3128C73.2087 86.2647 71.807 86.5198 70.5062 87.0606C69.2055 87.6014 68.0362 88.4153 67.0774 89.4473C66.1186 90.4793 65.3927 91.7053 64.9488 93.0422L62.9822 98.9422H55.1647L53.198 93.0422C52.7579 91.6855 52.028 90.4408 51.0588 89.3943C50.0896 88.3479 48.9043 87.5248 47.5853 86.9822C46.2662 86.4396 44.8449 86.1905 43.4199 86.2521C41.9949 86.3137 40.6004 86.6845 39.333 87.3389L33.728 90.1414L28.3197 84.733L31.2697 79.2755C31.9241 78.0082 32.2949 76.6137 32.3565 75.1887C32.4181 73.7637 32.1689 72.3424 31.6263 71.0233C31.0837 69.7042 30.2607 68.519 29.2143 67.5498C28.1678 66.5806 26.9231 65.8506 25.5664 65.4105L19.6664 63.4439V55.7739L25.5664 53.8072C26.9231 53.3671 28.1678 52.6372 29.2143 51.668C30.2607 50.6988 31.0837 49.5135 31.6263 48.1944C32.1689 46.8754 32.4181 45.454 32.3565 44.0291C32.2949 42.6041 31.9241 41.2096 31.2697 39.9422L28.4672 34.4847L33.8755 29.0764L39.333 31.8789C40.6004 32.5333 41.9949 32.9041 43.4199 32.9657C44.8449 33.0273 46.2662 32.7781 47.5853 32.2355C48.9043 31.6929 50.0896 30.8699 51.0588 29.8234C52.028 28.777 52.7579 27.5323 53.198 26.1755L55.1647 20.2755H62.8347L64.8013 26.1755C65.2414 27.5323 65.9714 28.777 66.9406 29.8234C67.9098 30.8699 69.095 31.6929 70.4141 32.2355C71.7332 32.7781 73.1545 33.0273 74.5795 32.9657C76.0045 32.9041 77.399 32.5333 78.6663 31.8789L84.2713 29.0764L89.6797 34.4847L86.7297 39.9422C86.1015 41.2031 85.7516 42.5842 85.7036 43.992C85.6555 45.3999 85.9106 46.8016 86.4514 48.1023C86.9922 49.403 87.8061 50.5724 88.8381 51.5312C89.8701 52.49 91.0961 53.2159 92.433 53.6597L98.333 55.6264V63.4439Z" fill="white"></path><path d="M60.328 72.0264L61.1638 72.5672L61.9013 73.1081C62.8171 74.0293 63.331 75.2754 63.331 76.5743C63.331 77.8732 62.8171 79.1194 61.9013 80.0406C61.4526 80.5005 60.9181 80.868 60.328 81.1222C59.7184 81.37 59.0684 81.5033 58.4105 81.5156C57.768 81.5078 57.1332 81.3742 56.5422 81.1222C55.3607 80.5939 54.4155 79.6487 53.8872 78.4672C53.6352 77.8761 53.5016 77.2414 53.4938 76.5989C53.4951 75.9398 53.6288 75.2877 53.8872 74.6814C54.1246 74.0822 54.4943 73.5443 54.9688 73.1081C55.6547 72.4176 56.5302 71.9462 57.4842 71.7537C58.4382 71.5611 59.4279 71.656 60.328 72.0264Z" fill="white"></path><path d="M51.7005 39.3057C53.7522 38.1678 56.0646 37.5833 58.4105 37.6097C61.9964 37.6097 65.4355 39.0343 67.9712 41.5699C70.5068 44.1055 71.9313 47.5446 71.9313 51.1306C71.9313 54.7165 70.5068 58.1556 67.9712 60.6912C65.4355 63.2269 61.9964 64.6514 58.4105 64.6514C57.1065 64.6514 55.8559 64.1334 54.9339 63.2113C54.0118 62.2893 53.4938 61.0387 53.4938 59.7347C53.4938 58.4308 54.0118 57.1802 54.9339 56.2581C55.8559 55.3361 57.1065 54.8181 58.4105 54.8181C59.3885 54.8181 60.3264 54.4296 61.0179 53.738C61.7095 53.0465 62.098 52.1086 62.098 51.1306C62.098 50.1526 61.7095 49.2147 61.0179 48.5231C60.3264 47.8316 59.3885 47.4431 58.4105 47.4431C57.7896 47.423 57.1733 47.556 56.616 47.8304C56.0586 48.1048 55.5774 48.5121 55.2147 49.0164C54.9073 49.604 54.4842 50.1233 53.971 50.5431C53.4577 50.963 52.8648 51.2746 52.228 51.4594C51.5911 51.6441 50.9235 51.6982 50.2652 51.6182C49.6069 51.5382 48.9717 51.326 48.3976 50.9941C47.8235 50.6623 47.3224 50.2177 46.9246 49.6872C46.5268 49.1567 46.2403 48.5512 46.0826 47.9071C45.9248 47.2631 45.899 46.5938 46.0066 45.9394C46.1142 45.2851 46.3531 44.6593 46.7088 44.0997C47.9286 42.0957 49.6489 40.4436 51.7005 39.3057Z" fill="white"></path></svg> 