<?xml version="1.0" encoding="UTF-8"?> <svg xmlns="http://www.w3.org/2000/svg" width="70" height="71" viewBox="0 0 70 71" fill="none"><rect width="70" height="70" transform="translate(0 0.108765)" fill="url(#paint0_linear_5482_52844)" fill-opacity="0.9"></rect><path d="M46.65 32.0463L44.2875 31.2588L45.4 29.0338C45.5128 28.8009 45.5505 28.5387 45.508 28.2835C45.4654 28.0282 45.3447 27.7925 45.1625 27.6088L42.5 24.9463C42.3153 24.7614 42.0773 24.639 41.8194 24.5964C41.5616 24.5538 41.2969 24.5931 41.0625 24.7088L38.8375 25.8213L38.05 23.4588C37.9668 23.2125 37.809 22.9983 37.5984 22.846C37.3878 22.6936 37.1349 22.6107 36.875 22.6088H33.125C32.8629 22.6081 32.6073 22.6898 32.3942 22.8423C32.1811 22.9949 32.0214 23.2105 31.9375 23.4588L31.15 25.8213L28.925 24.7088C28.6921 24.596 28.43 24.5583 28.1747 24.6008C27.9195 24.6434 27.6837 24.7641 27.5 24.9463L24.8375 27.6088C24.6526 27.7935 24.5303 28.0315 24.4877 28.2893C24.4451 28.5472 24.4843 28.8119 24.6 29.0463L25.7125 31.2713L23.35 32.0588C23.1037 32.1419 22.8895 32.2998 22.7372 32.5104C22.5848 32.721 22.5019 32.9739 22.5 33.2338V36.9838C22.4993 37.2458 22.581 37.5015 22.7336 37.7146C22.8861 37.9276 23.1017 38.0874 23.35 38.1713L25.7125 38.9588L24.6 41.1838C24.4872 41.4167 24.4495 41.6788 24.492 41.9341C24.5346 42.1893 24.6553 42.425 24.8375 42.6088L27.5 45.2713C27.6847 45.4562 27.9227 45.5785 28.1806 45.6211C28.4384 45.6637 28.7031 45.6244 28.9375 45.5088L31.1625 44.3963L31.95 46.7588C32.0339 47.007 32.1936 47.2227 32.4067 47.3752C32.6198 47.5277 32.8754 47.6094 33.1375 47.6088H36.8875C37.1496 47.6094 37.4052 47.5277 37.6183 47.3752C37.8314 47.2227 37.9911 47.007 38.075 46.7588L38.8625 44.3963L41.0875 45.5088C41.3189 45.6187 41.5785 45.6549 41.8311 45.6124C42.0838 45.5699 42.3173 45.4508 42.5 45.2713L45.1625 42.6088C45.3474 42.4241 45.4697 42.1861 45.5123 41.9282C45.5549 41.6703 45.5157 41.4056 45.4 41.1713L44.2875 38.9463L46.65 38.1588C46.8963 38.0756 47.1105 37.9177 47.2628 37.7071C47.4152 37.4965 47.4981 37.2437 47.5 36.9838V33.2338C47.5007 32.9717 47.419 32.7161 47.2665 32.503C47.1139 32.2899 46.8983 32.1301 46.65 32.0463ZM45 36.0838L43.5 36.5838C43.1551 36.6957 42.8386 36.8812 42.5726 37.1276C42.3065 37.3741 42.0973 37.6754 41.9593 38.0107C41.8214 38.3461 41.758 38.7075 41.7737 39.0697C41.7894 39.432 41.8836 39.7866 42.05 40.1088L42.7625 41.5338L41.3875 42.9088L40 42.1588C39.6794 41.9991 39.3283 41.9101 38.9704 41.8979C38.6125 41.8857 38.2561 41.9505 37.9254 42.088C37.5947 42.2255 37.2974 42.4324 37.0537 42.6948C36.8099 42.9572 36.6253 43.2689 36.5125 43.6088L36.0125 45.1088H34.025L33.525 43.6088C33.4131 43.2638 33.2275 42.9474 32.9811 42.6813C32.7347 42.4153 32.4334 42.206 32.098 42.0681C31.7627 41.9301 31.4013 41.8668 31.039 41.8825C30.6768 41.8981 30.3222 41.9924 30 42.1588L28.575 42.8713L27.2 41.4963L27.95 40.1088C28.1164 39.7866 28.2107 39.432 28.2263 39.0697C28.242 38.7075 28.1786 38.3461 28.0407 38.0107C27.9027 37.6754 27.6935 37.3741 27.4274 37.1276C27.1614 36.8812 26.8449 36.6957 26.5 36.5838L25 36.0838V34.1338L26.5 33.6338C26.8449 33.5219 27.1614 33.3363 27.4274 33.0899C27.6935 32.8435 27.9027 32.5422 28.0407 32.2068C28.1786 31.8714 28.242 31.5101 28.2263 31.1478C28.2107 30.7855 28.1164 30.431 27.95 30.1088L27.2375 28.7213L28.6125 27.3463L30 28.0588C30.3222 28.2251 30.6768 28.3194 31.039 28.3351C31.4013 28.3507 31.7627 28.2874 32.098 28.1494C32.4334 28.0115 32.7347 27.8022 32.9811 27.5362C33.2275 27.2702 33.4131 26.9537 33.525 26.6088L34.025 25.1088H35.975L36.475 26.6088C36.5869 26.9537 36.7725 27.2702 37.0189 27.5362C37.2653 27.8022 37.5666 28.0115 37.902 28.1494C38.2373 28.2874 38.5987 28.3507 38.961 28.3351C39.3233 28.3194 39.6778 28.2251 40 28.0588L41.425 27.3463L42.8 28.7213L42.05 30.1088C41.8903 30.4293 41.8013 30.7805 41.7891 31.1384C41.7769 31.4963 41.8418 31.8527 41.9792 32.1834C42.1167 32.5141 42.3237 32.8114 42.5861 33.0551C42.8484 33.2989 43.1601 33.4834 43.5 33.5963L45 34.0963V36.0838ZM35 30.1088C34.0111 30.1088 33.0444 30.402 32.2222 30.9514C31.3999 31.5008 30.759 32.2817 30.3806 33.1954C30.0022 34.109 29.9032 35.1143 30.0961 36.0842C30.289 37.0541 30.7652 37.945 31.4645 38.6443C32.1637 39.3436 33.0546 39.8198 34.0246 40.0127C34.9945 40.2056 35.9998 40.1066 36.9134 39.7282C37.8271 39.3497 38.6079 38.7089 39.1574 37.8866C39.7068 37.0644 40 36.0977 40 35.1088C40 33.7827 39.4732 32.5109 38.5355 31.5732C37.5979 30.6356 36.3261 30.1088 35 30.1088ZM35 37.6088C34.5056 37.6088 34.0222 37.4621 33.6111 37.1874C33.2 36.9127 32.8795 36.5223 32.6903 36.0655C32.5011 35.6087 32.4516 35.106 32.548 34.621C32.6445 34.1361 32.8826 33.6906 33.2322 33.341C33.5819 32.9914 34.0273 32.7533 34.5123 32.6568C34.9972 32.5603 35.4999 32.6098 35.9567 32.7991C36.4135 32.9883 36.804 33.3087 37.0787 33.7198C37.3534 34.131 37.5 34.6143 37.5 35.1088C37.5 35.7718 37.2366 36.4077 36.7678 36.8765C36.2989 37.3454 35.663 37.6088 35 37.6088Z" fill="white"></path><defs><linearGradient id="paint0_linear_5482_52844" x1="-5.47183e-07" y1="34.9206" x2="70" y2="34.9206" gradientUnits="userSpaceOnUse"><stop stop-color="#10B981"></stop><stop offset="1" stop-color="#34D399"></stop></linearGradient></defs></svg> 