<svg xmlns="http://www.w3.org/2000/svg" width="126" height="36" viewBox="0 0 126 36" fill="none"><g clip-path="url(#clip0_1326_4295)"><path fill-rule="evenodd" clip-rule="evenodd" d="M52.7064 11.2904C52.5316 10.9172 52.2954 10.6007 51.9978 10.3267C51.7049 10.0621 51.3695 9.83539 50.9963 9.64643C50.6136 9.45747 50.231 9.29213 49.8389 9.13623C49.4468 8.98979 49.0641 8.83862 48.6909 8.69217C48.3177 8.55518 47.9823 8.38511 47.6894 8.21032C47.3965 8.0308 47.1509 7.82767 46.9714 7.59147C46.7871 7.35527 46.6974 7.07182 46.6974 6.71752C46.6974 6.50021 46.7352 6.29235 46.8344 6.09867C46.9336 5.90026 47.0706 5.73491 47.2643 5.59792C47.4485 5.46092 47.6941 5.35227 47.9918 5.27196C48.2846 5.19165 48.6201 5.15386 49.0027 5.15386C49.4326 5.15386 49.82 5.19165 50.1507 5.25306C50.4861 5.32392 50.779 5.39006 51.0246 5.47037C51.2703 5.55068 51.4781 5.62626 51.634 5.68767C51.7899 5.75853 51.908 5.78688 51.9978 5.78688C52.045 5.78688 52.097 5.77743 52.1442 5.73964C52.182 5.71129 52.2245 5.64988 52.2623 5.5743C52.2906 5.49399 52.3095 5.39951 52.3332 5.27668C52.3426 5.15858 52.3521 5.01213 52.3521 4.84207C52.3521 4.68617 52.3426 4.55862 52.3332 4.44997C52.3143 4.35077 52.3048 4.26101 52.2859 4.18542C52.267 4.11456 52.2481 4.04843 52.2151 3.98701C52.1773 3.93033 52.1064 3.87836 52.0072 3.83112C51.908 3.78388 51.7616 3.72247 51.5679 3.65633C51.3695 3.59964 51.138 3.52878 50.8593 3.46737C50.5853 3.40596 50.2688 3.36816 49.9239 3.33037C49.5696 3.29258 49.2295 3.27368 48.8941 3.27368C48.1099 3.27368 47.4201 3.37289 46.8296 3.5713C46.2391 3.76971 45.7478 4.03425 45.3557 4.36021C44.9636 4.68617 44.666 5.05937 44.4723 5.49399C44.2739 5.9286 44.1794 6.37739 44.1794 6.84979C44.1794 7.38361 44.2692 7.84184 44.444 8.22922C44.6188 8.61186 44.8692 8.94727 45.162 9.22127C45.4549 9.49526 45.7998 9.73146 46.173 9.92043C46.5462 10.1188 46.9383 10.2842 47.3351 10.4306C47.7272 10.5865 48.1004 10.7282 48.4736 10.8652C48.8468 11.0022 49.1822 11.1723 49.4751 11.3471C49.768 11.5219 50.0137 11.7297 50.1932 11.9565C50.368 12.1927 50.4672 12.4761 50.4672 12.8115C50.4672 13.1281 50.4105 13.3926 50.2924 13.6194C50.1743 13.8461 49.9995 14.0304 49.7822 14.1721C49.5554 14.3185 49.2909 14.4272 48.998 14.5075C48.6956 14.5878 48.3602 14.6161 47.9965 14.6161C47.4957 14.6161 47.0517 14.5547 46.6785 14.4177C46.2958 14.2902 45.9604 14.1437 45.6864 13.9831C45.4124 13.8272 45.1762 13.6855 44.992 13.5485C44.7936 13.421 44.6566 13.3501 44.5574 13.3501C44.4865 13.3501 44.4298 13.369 44.392 13.3973C44.3448 13.4351 44.3023 13.4871 44.2739 13.5627C44.2456 13.643 44.2267 13.7422 44.2031 13.8603C44.1842 13.9784 44.1842 14.1248 44.1842 14.3044C44.1842 14.5972 44.2031 14.824 44.255 14.9941C44.2928 15.1594 44.3731 15.3011 44.4723 15.3956C44.5715 15.4948 44.7369 15.6129 44.9636 15.731C45.1809 15.8586 45.4549 15.9767 45.7715 16.0948C46.0832 16.2129 46.447 16.3121 46.8533 16.3877C47.2454 16.468 47.6658 16.4963 48.1099 16.4963C48.8279 16.4963 49.4846 16.416 50.0845 16.2412C50.6845 16.0759 51.2041 15.8302 51.6387 15.4948C52.0686 15.1689 52.404 14.7673 52.6402 14.2855C52.8764 13.8036 52.9945 13.2509 52.9945 12.632C52.9945 12.1218 52.8953 11.6778 52.7205 11.3046L52.7064 11.2904Z" fill="#9CA3AF"></path><path fill-rule="evenodd" clip-rule="evenodd" d="M64.2613 12.2448C63.9259 12.6888 63.6046 13.062 63.307 13.3596C63.0141 13.6525 62.726 13.9029 62.452 14.0871C62.178 14.2761 61.9134 14.4037 61.6583 14.4792C61.3938 14.5595 61.1198 14.5973 60.8411 14.5973C60.2836 14.5973 59.8207 14.4698 59.4569 14.1958C59.0837 13.9218 58.7908 13.5675 58.5735 13.114C58.3468 12.6699 58.1909 12.1597 58.1011 11.5787C58.0114 10.9976 57.9736 10.3977 57.9736 9.7788C57.9736 9.20719 58.0208 8.64503 58.1295 8.09704C58.2381 7.54432 58.4034 7.05302 58.6396 6.62313C58.8759 6.18852 59.1782 5.83422 59.5561 5.56022C59.9293 5.29568 60.3923 5.15868 60.9308 5.15868C61.5119 5.15868 62.0693 5.35709 62.6031 5.74918C63.1322 6.14128 63.6944 6.70344 64.266 7.4404V12.2542L64.2613 12.2448ZM66.7745 3.6895C66.7745 3.60919 66.7556 3.54305 66.7178 3.48164C66.68 3.4344 66.6186 3.39188 66.543 3.35409C66.4532 3.3163 66.3351 3.2974 66.1981 3.27378C66.0611 3.26433 65.8864 3.25488 65.6879 3.25488C65.4706 3.25488 65.2864 3.26433 65.1494 3.27378C65.0124 3.29268 64.8943 3.31157 64.8045 3.35409C64.7053 3.39188 64.6486 3.44385 64.6061 3.50053C64.5683 3.55722 64.5494 3.62808 64.5494 3.70839V5.31457C64.1762 4.95082 63.8314 4.63431 63.5196 4.36976C63.2078 4.11466 62.8913 3.89735 62.5842 3.73201C62.2677 3.57612 61.9654 3.45802 61.6536 3.37771C61.3371 3.2974 61.0064 3.25961 60.6521 3.25961C59.8065 3.25961 59.0601 3.4155 58.4129 3.73201C57.7657 4.04852 57.2224 4.50203 56.7925 5.09254C56.3532 5.68305 56.0178 6.4011 55.8005 7.22781C55.5737 8.06397 55.4651 8.99933 55.4651 10.0339C55.4651 10.9079 55.5548 11.7393 55.7296 12.5235C55.9044 13.3124 56.1831 14.0021 56.5752 14.5784C56.9579 15.169 57.4586 15.6319 58.068 15.9768C58.6774 16.3216 59.4238 16.487 60.2883 16.487C60.6332 16.487 60.9639 16.4586 61.2898 16.3878C61.6111 16.3263 61.937 16.213 62.2536 16.0523C62.5653 15.8965 62.8913 15.698 63.2267 15.4429C63.5621 15.1878 63.9023 14.8808 64.2707 14.5076V21.074C64.2707 21.1449 64.2802 21.211 64.318 21.2724C64.3558 21.3291 64.4266 21.3716 64.5258 21.4189C64.625 21.4472 64.7526 21.4803 64.9085 21.4992C65.0644 21.5181 65.2722 21.5275 65.5273 21.5275C65.7635 21.5275 65.9667 21.5181 66.1273 21.4992C66.2832 21.4803 66.4107 21.4519 66.5099 21.4189C66.5997 21.3716 66.6658 21.3291 66.7178 21.2819C66.7556 21.211 66.7886 21.1543 66.7886 21.0835V3.6895H66.7745Z" fill="#9CA3AF"></path><path fill-rule="evenodd" clip-rule="evenodd" d="M81.9008 3.67996C81.9008 3.6091 81.8725 3.55241 81.83 3.50517C81.7827 3.45793 81.7119 3.40597 81.6221 3.36817C81.5229 3.33038 81.3954 3.29731 81.2395 3.27842C81.0836 3.26897 80.8757 3.25952 80.6395 3.25952C80.3844 3.25952 80.1765 3.26897 80.0207 3.27842C79.8648 3.29731 79.7372 3.32566 79.638 3.36817C79.5388 3.40597 79.4727 3.45793 79.4301 3.50517C79.3924 3.55241 79.3829 3.61383 79.3829 3.67996V12.3344C78.7924 13.0808 78.2302 13.643 77.7106 14.0256C77.1909 14.4083 76.6666 14.5973 76.1375 14.5973C75.7265 14.5973 75.3722 14.5169 75.0651 14.3516C74.7628 14.1863 74.5077 13.9501 74.3093 13.643C74.1109 13.3359 73.9644 12.9722 73.8652 12.5423C73.766 12.1077 73.7188 11.5361 73.7188 10.818V3.67996C73.7188 3.6091 73.6999 3.55241 73.6621 3.50517C73.6243 3.45793 73.5534 3.40597 73.4542 3.36817C73.355 3.33038 73.218 3.29731 73.0621 3.27842C72.9062 3.26897 72.6984 3.25952 72.4622 3.25952C72.226 3.25952 72.0087 3.26897 71.8528 3.27842C71.6969 3.29731 71.5599 3.32566 71.4607 3.36817C71.3615 3.40597 71.2953 3.45793 71.2528 3.50517C71.215 3.55241 71.2056 3.61383 71.2056 3.67996V11.0826C71.2056 11.9707 71.2764 12.7265 71.4229 13.3454C71.5693 13.9642 71.815 14.5075 72.1598 14.9705C72.4952 15.4429 72.944 15.8066 73.4967 16.0853C74.0447 16.3593 74.7344 16.4869 75.5423 16.4869C76.232 16.4869 76.9075 16.331 77.5878 15.9956C78.2539 15.6696 78.9436 15.15 79.6333 14.4225V16.0664C79.6333 16.1467 79.6427 16.2034 79.6711 16.2554C79.6994 16.3026 79.7608 16.3452 79.8459 16.3829C79.9262 16.4207 80.0443 16.4396 80.1907 16.4633C80.3372 16.4822 80.5356 16.4916 80.7718 16.4916C80.9796 16.4916 81.1544 16.4822 81.3009 16.4633C81.4473 16.4444 81.5654 16.4255 81.6552 16.3829C81.7449 16.3452 81.8016 16.3026 81.8394 16.2554C81.8772 16.2082 81.8961 16.1467 81.8961 16.0664V3.67996H81.9008Z" fill="#9CA3AF"></path><path fill-rule="evenodd" clip-rule="evenodd" d="M93.1065 13.043C92.5963 13.5721 92.1144 13.9595 91.6609 14.2146C91.198 14.4697 90.6972 14.5973 90.1681 14.5973C89.4973 14.5973 88.9871 14.4414 88.6234 14.1154C88.2502 13.7989 88.0706 13.369 88.0706 12.8163C88.0706 12.4998 88.1273 12.2258 88.2596 11.9801C88.3872 11.7345 88.5856 11.5266 88.8596 11.3518C89.1336 11.177 89.4784 11.0448 89.8894 10.9597C90.3004 10.87 90.7823 10.8227 91.3539 10.8227H93.1018V13.0478L93.1065 13.043ZM95.6197 7.85603C95.6197 7.10018 95.5299 6.43881 95.3646 5.8672C95.1898 5.29559 94.9111 4.82318 94.5284 4.44053C94.1458 4.05789 93.645 3.76027 93.0356 3.56659C92.4262 3.36817 91.6798 3.25952 90.8059 3.25952C90.3335 3.25952 89.8611 3.30676 89.4028 3.40597C88.9399 3.50517 88.5194 3.62327 88.1226 3.76972C87.7305 3.91617 87.3857 4.07678 87.0928 4.25157C86.7999 4.42636 86.5826 4.57753 86.4645 4.69563C86.3464 4.81374 86.2661 4.93184 86.2377 5.04994C86.1999 5.17749 86.1905 5.357 86.1905 5.56958C86.1905 5.70658 86.1905 5.82468 86.2094 5.93334C86.2283 6.04199 86.2566 6.13175 86.2991 6.19788C86.3369 6.26874 86.3794 6.31598 86.4361 6.35378C86.4834 6.39157 86.5448 6.40102 86.6251 6.40102C86.7243 6.40102 86.8802 6.33961 87.0975 6.20261C87.3148 6.07506 87.5793 5.92861 87.8911 5.76799C88.2076 5.6121 88.5714 5.4751 88.9918 5.33338C89.4123 5.20583 89.8941 5.13497 90.4279 5.13497C90.9192 5.13497 91.3302 5.20583 91.6751 5.32393C92.0105 5.44203 92.2845 5.61683 92.5018 5.85303C92.7191 6.08923 92.8656 6.39629 92.9648 6.7506C93.064 7.1049 93.1112 7.51589 93.1112 7.97885V8.91422H91.4814C90.5602 8.91422 89.7335 9.00397 89.006 9.15987C88.2691 9.32521 87.6502 9.57558 87.14 9.89682C86.6298 10.2228 86.2472 10.6243 85.9684 11.1156C85.6944 11.6069 85.5669 12.188 85.5669 12.8588C85.5669 13.4304 85.6661 13.9406 85.8598 14.3941C86.0582 14.8476 86.3322 15.2208 86.6865 15.5279C87.0408 15.835 87.4707 16.0712 87.9856 16.2271C88.4958 16.3924 89.058 16.4727 89.6863 16.4727C90.3949 16.4727 91.0751 16.3452 91.7129 16.0806C92.3506 15.8255 92.9317 15.4003 93.4513 14.8193V16.0617C93.4513 16.1798 93.4797 16.2601 93.56 16.3168C93.6309 16.3782 93.7442 16.416 93.9048 16.4349C94.0607 16.4633 94.2686 16.4727 94.5426 16.4727C94.8166 16.4727 95.0245 16.4633 95.1709 16.4349C95.3079 16.416 95.426 16.3782 95.5063 16.3168C95.5866 16.2601 95.6339 16.1798 95.6339 16.0712V7.8513L95.6197 7.85603Z" fill="#9CA3AF"></path><path fill-rule="evenodd" clip-rule="evenodd" d="M107.637 4.07214C107.637 3.96349 107.628 3.88318 107.609 3.82649C107.59 3.76981 107.581 3.72729 107.562 3.6895C107.543 3.6517 107.515 3.60919 107.453 3.57139C107.397 3.5336 107.307 3.49109 107.17 3.45329C107.033 3.4155 106.877 3.38243 106.707 3.34464C106.542 3.3163 106.381 3.2974 106.225 3.27378C106.069 3.26433 105.932 3.25488 105.814 3.25488C105.54 3.25488 105.275 3.29268 105.006 3.35409C104.742 3.4155 104.477 3.52888 104.203 3.6895C103.929 3.85484 103.641 4.08159 103.348 4.36976C103.046 4.66738 102.72 5.03113 102.375 5.47991V3.68005C102.375 3.60919 102.356 3.5525 102.313 3.50526C102.276 3.45802 102.214 3.40605 102.139 3.36826C102.058 3.33047 101.94 3.2974 101.794 3.2785C101.647 3.26906 101.458 3.25961 101.246 3.25961C101.01 3.25961 100.825 3.26906 100.688 3.2785C100.542 3.2974 100.424 3.32574 100.334 3.36826C100.235 3.40605 100.178 3.45802 100.15 3.50526C100.122 3.5525 100.112 3.61391 100.112 3.68005V16.0665C100.112 16.1468 100.122 16.2035 100.159 16.2555C100.197 16.3027 100.259 16.3452 100.358 16.383C100.457 16.4208 100.584 16.4397 100.75 16.4633C100.906 16.4822 101.114 16.4917 101.359 16.4917C101.605 16.4917 101.822 16.4822 101.988 16.4633C102.143 16.4444 102.271 16.4255 102.37 16.383C102.46 16.3452 102.526 16.3027 102.564 16.2555C102.602 16.2082 102.625 16.1468 102.625 16.0665V7.92225C102.951 7.41205 103.244 6.96799 103.518 6.61369C103.783 6.25938 104.038 5.97594 104.283 5.75863C104.529 5.54133 104.765 5.39488 104.992 5.29567C105.209 5.19647 105.441 5.14923 105.677 5.14923C105.861 5.14923 106.041 5.16813 106.206 5.20592C106.371 5.24371 106.532 5.28623 106.669 5.32402C106.806 5.36181 106.924 5.41378 107.033 5.45157C107.132 5.48936 107.231 5.50826 107.307 5.50826C107.378 5.50826 107.434 5.48936 107.472 5.45157C107.51 5.41378 107.552 5.34292 107.581 5.26261C107.6 5.1823 107.619 5.08782 107.628 4.96499C107.637 4.84689 107.647 4.691 107.647 4.51148C107.647 4.33197 107.637 4.18552 107.637 4.06742V4.07214Z" fill="#9CA3AF"></path><path fill-rule="evenodd" clip-rule="evenodd" d="M111.714 8.29536C111.733 7.87965 111.814 7.48755 111.96 7.1049C112.097 6.72225 112.305 6.38685 112.579 6.1034C112.843 5.81996 113.179 5.5932 113.571 5.41369C113.963 5.2389 114.417 5.14914 114.946 5.14914C115.966 5.14914 116.736 5.43259 117.256 5.9853C117.775 6.54746 118.021 7.31276 118.002 8.30009H111.714V8.29536ZM120.52 8.84808C120.52 8.07806 120.411 7.36 120.208 6.68446C120 6.0042 119.679 5.41369 119.245 4.91294C118.81 4.41219 118.252 4.00592 117.572 3.71303C116.892 3.42014 116.07 3.25952 115.106 3.25952C114.204 3.25952 113.387 3.41542 112.659 3.72248C111.932 4.03899 111.303 4.47833 110.793 5.04994C110.274 5.62155 109.877 6.32071 109.603 7.14742C109.329 7.97413 109.201 8.90004 109.201 9.93461C109.201 11.0259 109.329 11.9801 109.593 12.7974C109.848 13.6241 110.24 14.3044 110.751 14.8476C111.261 15.4003 111.899 15.8019 112.659 16.0759C113.406 16.3499 114.289 16.4916 115.29 16.4916C115.862 16.4916 116.41 16.4349 116.92 16.3121C117.43 16.194 117.875 16.0664 118.267 15.92C118.649 15.7735 118.966 15.6271 119.211 15.4665C119.448 15.3106 119.594 15.2114 119.641 15.15C119.689 15.1027 119.731 15.0508 119.769 14.9941C119.797 14.9374 119.816 14.876 119.84 14.8051C119.849 14.7343 119.859 14.6587 119.868 14.5595C119.878 14.4697 119.887 14.3611 119.887 14.2429C119.887 14.0776 119.878 13.9264 119.868 13.8083C119.849 13.6902 119.83 13.6005 119.811 13.5343C119.783 13.4777 119.741 13.4257 119.693 13.3879C119.646 13.3596 119.594 13.3407 119.537 13.3407C119.419 13.3407 119.263 13.4115 119.056 13.5391C118.848 13.6761 118.583 13.8131 118.262 13.9737C117.936 14.1296 117.553 14.2807 117.114 14.4083C116.67 14.5453 116.169 14.6067 115.612 14.6067C114.884 14.6067 114.275 14.5075 113.784 14.2996C113.292 14.0918 112.891 13.7989 112.584 13.4021C112.272 13.0194 112.055 12.5565 111.918 12.0132C111.781 11.4794 111.719 10.87 111.719 10.1944H119.66C119.887 10.1944 120.085 10.1236 120.26 9.97713C120.435 9.84013 120.525 9.59448 120.525 9.24962V8.85753L120.52 8.84808Z" fill="#9CA3AF"></path><path fill-rule="evenodd" clip-rule="evenodd" d="M10.6905 3.67996C10.6905 3.6091 10.6622 3.55241 10.6197 3.50517C10.5724 3.45793 10.5016 3.40597 10.4118 3.36817C10.3126 3.33038 10.1851 3.29731 10.0292 3.27842C9.87327 3.26897 9.66542 3.25952 9.42921 3.25952C9.17412 3.25952 8.96626 3.26897 8.81036 3.27842C8.65447 3.29731 8.52692 3.32566 8.42771 3.36817C8.32851 3.40597 8.26237 3.45793 8.21986 3.50517C8.18206 3.55241 8.17262 3.61383 8.17262 3.67996V12.3344C7.58211 13.0808 7.02467 13.643 6.5003 14.0256C5.98065 14.4083 5.46101 14.5973 4.92719 14.5973C4.5162 14.5973 4.16189 14.5169 3.85483 14.3516C3.55249 14.1863 3.29267 13.9501 3.09898 13.643C2.90057 13.3359 2.75412 12.9722 2.65964 12.5423C2.56044 12.1077 2.5132 11.5361 2.5132 10.818V3.67996C2.5132 3.6091 2.4943 3.55241 2.45651 3.50517C2.41872 3.45793 2.34786 3.40597 2.24865 3.36817C2.14945 3.33038 2.01245 3.29731 1.85655 3.27842C1.70066 3.26897 1.4928 3.25952 1.2566 3.25952C1.0204 3.25952 0.803089 3.26897 0.647196 3.27842C0.491302 3.29731 0.354304 3.32566 0.255099 3.36817C0.155894 3.40597 0.0897571 3.45793 0.0472406 3.50517C0.00944811 3.55241 0 3.61383 0 3.67996V11.0826C0 11.9707 0.0708608 12.7265 0.217307 13.3454C0.363752 13.9642 0.609403 14.5075 0.954259 14.9705C1.28967 15.4429 1.73845 15.8066 2.29117 16.0853C2.84388 16.3593 3.52887 16.4869 4.33668 16.4869C5.02167 16.4869 5.70193 16.331 6.3822 15.9956C7.04829 15.6696 7.738 15.15 8.42771 14.4225V16.0664C8.42771 16.1467 8.43716 16.2034 8.46551 16.2554C8.49385 16.3026 8.55526 16.3452 8.6403 16.3829C8.72061 16.4207 8.83871 16.4396 8.98515 16.4633C9.1316 16.4822 9.33001 16.4916 9.56621 16.4916C9.77407 16.4916 9.94886 16.4822 10.0953 16.4633C10.2418 16.4444 10.3599 16.4255 10.4496 16.3829C10.5394 16.3452 10.5961 16.3026 10.6338 16.2554C10.6716 16.2082 10.6905 16.1467 10.6905 16.0664V3.67996Z" fill="#9CA3AF"></path><path fill-rule="evenodd" clip-rule="evenodd" d="M25.5004 8.62141C25.5004 7.75691 25.42 7.01523 25.2736 6.39638C25.1272 5.77753 24.8815 5.23426 24.5461 4.7713C24.2012 4.3178 23.7477 3.94459 23.1997 3.6706C22.6517 3.3966 21.9715 3.25488 21.1637 3.25488C20.474 3.25488 19.789 3.42022 19.1087 3.75563C18.4332 4.09104 17.7529 4.61069 17.0726 5.3193V3.67532C17.0726 3.60446 17.0537 3.54777 17.0159 3.50053C16.9782 3.45329 16.9167 3.40133 16.8412 3.36354C16.7608 3.32574 16.6427 3.29268 16.4963 3.27378C16.3499 3.26433 16.1609 3.25488 15.9436 3.25488C15.7074 3.25488 15.5231 3.26433 15.3861 3.27378C15.2397 3.29268 15.1216 3.32102 15.0318 3.36354C14.9326 3.40133 14.876 3.45329 14.8476 3.50053C14.8193 3.54777 14.8098 3.60919 14.8098 3.67532V16.0618C14.8098 16.1421 14.8193 16.1988 14.8571 16.2508C14.8948 16.298 14.9563 16.3405 15.0507 16.3783C15.1499 16.4161 15.2775 16.435 15.4428 16.4586C15.5987 16.4775 15.8066 16.487 16.0522 16.487C16.2979 16.487 16.5152 16.4775 16.6805 16.4586C16.8364 16.4397 16.964 16.4208 17.0632 16.3783C17.1529 16.3405 17.2191 16.298 17.2616 16.2508C17.2994 16.2035 17.3183 16.1421 17.3183 16.0618V7.49708C17.8899 6.72706 18.4379 6.15073 18.9717 5.74446C19.5008 5.35236 20.0252 5.14451 20.5543 5.14451C20.9558 5.14451 21.3101 5.23426 21.6266 5.39016C21.929 5.5555 22.1841 5.7917 22.3825 6.09876C22.5809 6.41528 22.7273 6.77903 22.8265 7.19947C22.9257 7.63408 22.9824 8.19152 22.9824 8.88123V16.0571C22.9824 16.1374 23.0013 16.1941 23.0438 16.246C23.0816 16.2933 23.143 16.3358 23.2423 16.3736C23.332 16.4114 23.4596 16.4303 23.6249 16.4539C23.7808 16.4728 23.9981 16.4822 24.2532 16.4822C24.4894 16.4822 24.6925 16.4728 24.8626 16.4539C25.0185 16.435 25.146 16.4161 25.2453 16.3736C25.335 16.3358 25.4011 16.2933 25.4437 16.246C25.4815 16.1988 25.5051 16.1374 25.5051 16.0571V8.61196L25.5004 8.62141Z" fill="#9CA3AF"></path><path fill-rule="evenodd" clip-rule="evenodd" d="M38.8884 11.8007C38.7419 12.3723 38.5152 12.8731 38.1987 13.2888C37.8869 13.6998 37.4901 14.0257 37.0082 14.2525C36.5264 14.4887 35.9595 14.5973 35.3076 14.5973C34.58 14.5973 33.9801 14.4792 33.4982 14.2241C33.0164 13.969 32.6337 13.6336 32.3456 13.199C32.0527 12.7644 31.8448 12.2637 31.7267 11.692C31.6086 11.1204 31.5519 10.5016 31.5519 9.84022C31.5519 9.17885 31.6228 8.53165 31.7787 7.96004C31.9251 7.38843 32.1519 6.88768 32.4637 6.46252C32.766 6.0468 33.1628 5.72556 33.6447 5.48936C34.1171 5.26261 34.6887 5.14451 35.3548 5.14451C36.0728 5.14451 36.6728 5.27205 37.1547 5.52715C37.6365 5.78225 38.0192 6.11766 38.3026 6.55227C38.5861 6.98689 38.7939 7.49708 38.912 8.0687C39.0301 8.64031 39.101 9.24971 39.101 9.90163C39.101 10.5913 39.0207 11.2291 38.8837 11.8007H38.8884ZM41.2362 7.03413C40.9811 6.22631 40.589 5.54605 40.0788 4.98861C39.5687 4.42645 38.9309 3.99656 38.1609 3.69894C37.3956 3.40605 36.4886 3.25488 35.4587 3.25488C34.4289 3.25488 33.4463 3.42022 32.6479 3.75563C31.8448 4.09104 31.174 4.554 30.6449 5.14451C30.1064 5.74446 29.7001 6.45307 29.4356 7.27978C29.171 8.10649 29.0435 9.00406 29.0435 9.98666C29.0435 10.9693 29.1616 11.9046 29.4167 12.7124C29.6718 13.5203 30.0544 14.2005 30.5646 14.758C31.0748 15.3201 31.7173 15.7406 32.4826 16.0382C33.2479 16.3358 34.1549 16.4822 35.1942 16.4822C36.2335 16.4822 37.1877 16.3169 37.9955 15.9815C38.7986 15.6461 39.4694 15.1831 40.008 14.5832C40.5371 13.9927 40.9386 13.2841 41.2173 12.4573C41.4819 11.6306 41.6189 10.7236 41.6189 9.74101C41.6189 8.75841 41.4913 7.84194 41.2362 7.03413Z" fill="#9CA3AF"></path><path d="M4.39821 20.271H1.88501V22.7936H4.39821V20.271Z" fill="#9CA3AF"></path><path d="M10.0623 20.271H7.54907V22.7936H10.0623V20.271Z" fill="#9CA3AF"></path><path d="M15.8587 24.6833H13.3455V27.2013H15.8587V24.6833Z" fill="#9CA3AF"></path><path d="M21.66 20.271H19.1421V22.7936H21.66V20.271Z" fill="#9CA3AF"></path><path d="M32.7047 20.271H30.1868V22.7936H32.7047V20.271Z" fill="#9CA3AF"></path><path d="M38.5011 24.6833H35.9832V27.2013H38.5011V24.6833Z" fill="#9CA3AF"></path><path d="M44.2927 28.4624H41.7795V30.9803H44.2927V28.4624Z" fill="#9CA3AF"></path><path d="M50.1697 24.6833H47.6565V27.2013H50.1697V24.6833Z" fill="#9CA3AF"></path><path d="M55.9707 24.6833H53.4575V27.2013H55.9707V24.6833Z" fill="#9CA3AF"></path><path d="M61.7671 28.4624H59.2539V30.9803H61.7671V28.4624Z" fill="#9CA3AF"></path><path d="M67.7004 32.8748H65.1873V35.3927H67.7004V32.8748Z" fill="#9CA3AF"></path><path d="M4.39821 24.6833H1.88501V27.2013H4.39821V24.6833Z" fill="#9CA3AF"></path><path d="M10.0623 24.6833H7.54907V27.2013H10.0623V24.6833Z" fill="#9CA3AF"></path><path d="M15.8587 28.4624H13.3455V30.9803H15.8587V28.4624Z" fill="#9CA3AF"></path><path d="M21.66 24.6833H19.1421V27.2013H21.66V24.6833Z" fill="#9CA3AF"></path><path d="M32.7047 24.6833H30.1868V27.2013H32.7047V24.6833Z" fill="#9CA3AF"></path><path d="M38.5011 28.4624H35.9832V30.9803H38.5011V28.4624Z" fill="#9CA3AF"></path><path d="M44.2927 32.8748H41.7795V35.3927H44.2927V32.8748Z" fill="#9CA3AF"></path><path d="M50.1697 28.4624H47.6565V30.9803H50.1697V28.4624Z" fill="#9CA3AF"></path><path d="M55.9707 28.4624H53.4575V30.9803H55.9707V28.4624Z" fill="#9CA3AF"></path><path d="M61.7671 32.8748H59.2539V35.3927H61.7671V32.8748Z" fill="#9CA3AF"></path><path d="M123.879 0C124.243 0 124.592 0.089757 124.923 0.273995C125.254 0.458233 125.518 0.718056 125.712 1.05819C125.906 1.39832 126 1.75262 126 2.12582C126 2.49903 125.906 2.84861 125.721 3.18401C125.537 3.51942 125.273 3.77924 124.937 3.96821C124.602 4.15717 124.252 4.24693 123.879 4.24693C123.506 4.24693 123.156 4.15244 122.821 3.96821C122.485 3.78397 122.225 3.51942 122.037 3.18401C121.848 2.84861 121.758 2.49903 121.758 2.12582C121.758 1.75262 121.852 1.39832 122.046 1.05819C122.24 0.718056 122.499 0.458233 122.835 0.273995C123.17 0.089757 123.52 0 123.879 0ZM123.879 0.415717C123.586 0.415717 123.307 0.486578 123.038 0.633023C122.769 0.779469 122.561 0.987328 122.405 1.26132C122.249 1.53532 122.174 1.81876 122.174 2.1211C122.174 2.42344 122.249 2.70216 122.4 2.97143C122.551 3.2407 122.759 3.45328 123.029 3.60445C123.298 3.75562 123.581 3.83121 123.874 3.83121C124.167 3.83121 124.455 3.75562 124.725 3.60445C124.994 3.45328 125.202 3.2407 125.353 2.97143C125.504 2.70216 125.58 2.41872 125.58 2.1211C125.58 1.82349 125.504 1.53532 125.348 1.26132C125.192 0.987328 124.984 0.779469 124.715 0.633023C124.446 0.486578 124.167 0.415717 123.874 0.415717H123.879ZM122.92 3.25487V1.00622H123.378C123.808 1.00622 124.044 1.00622 124.096 1.01095C124.247 1.02512 124.365 1.05346 124.451 1.1007C124.536 1.14795 124.606 1.21881 124.663 1.31801C124.72 1.41722 124.748 1.52115 124.748 1.63925C124.748 1.79986 124.696 1.94159 124.588 2.05496C124.479 2.16834 124.332 2.24393 124.139 2.26755C124.205 2.29117 124.262 2.31951 124.295 2.35258C124.328 2.38565 124.384 2.44234 124.446 2.52737C124.465 2.55099 124.517 2.64075 124.611 2.80136L124.876 3.25487H124.309L124.12 2.89112C123.992 2.64547 123.888 2.48958 123.803 2.42816C123.718 2.36675 123.614 2.33368 123.487 2.33368H123.369V3.2596H122.91L122.92 3.25487ZM123.378 1.97465H123.562C123.827 1.97465 123.992 1.96521 124.054 1.94631C124.115 1.92741 124.167 1.88962 124.205 1.83766C124.243 1.78569 124.262 1.729 124.262 1.66287C124.262 1.59673 124.243 1.54477 124.21 1.49753C124.177 1.45028 124.125 1.41249 124.054 1.3936C123.983 1.3747 123.822 1.36053 123.562 1.36053H123.378V1.97465Z" fill="#9CA3AF"></path></g><defs><clipPath id="clip0_1326_4295"><rect width="126" height="35.3926" fill="white"></rect></clipPath></defs></svg>