<svg xmlns="http://www.w3.org/2000/svg" width="20" height="21" viewBox="0 0 20 21" fill="none"><path d="M10.2499 10.6834C10.6946 10.2985 11.0512 9.82248 11.2956 9.2876C11.5401 8.75272 11.6666 8.17151 11.6666 7.58341C11.6666 6.47835 11.2276 5.41854 10.4462 4.63714C9.66479 3.85574 8.60499 3.41675 7.49992 3.41675C6.39485 3.41675 5.33504 3.85574 4.55364 4.63714C3.77224 5.41854 3.33325 6.47835 3.33325 7.58341C3.33325 8.17151 3.45975 8.75272 3.70419 9.2876C3.94863 9.82248 4.30527 10.2985 4.74992 10.6834C3.58337 11.2117 2.59364 12.0647 1.89907 13.1405C1.2045 14.2164 0.834478 15.4695 0.833252 16.7501C0.833252 16.9711 0.921049 17.1831 1.07733 17.3393C1.23361 17.4956 1.44557 17.5834 1.66659 17.5834C1.8876 17.5834 2.09956 17.4956 2.25584 17.3393C2.41212 17.1831 2.49992 16.9711 2.49992 16.7501C2.49992 15.424 3.0267 14.1522 3.96438 13.2145C4.90207 12.2769 6.17384 11.7501 7.49992 11.7501C8.826 11.7501 10.0978 12.2769 11.0355 13.2145C11.9731 14.1522 12.4999 15.424 12.4999 16.7501C12.4999 16.9711 12.5877 17.1831 12.744 17.3393C12.9003 17.4956 13.1122 17.5834 13.3333 17.5834C13.5543 17.5834 13.7662 17.4956 13.9225 17.3393C14.0788 17.1831 14.1666 16.9711 14.1666 16.7501C14.1654 15.4695 13.7953 14.2164 13.1008 13.1405C12.4062 12.0647 11.4165 11.2117 10.2499 10.6834ZM7.49992 10.0834C7.00547 10.0834 6.52212 9.93679 6.11099 9.66209C5.69987 9.38738 5.37944 8.99694 5.19022 8.54012C5.001 8.08331 4.95149 7.58064 5.04796 7.09569C5.14442 6.61074 5.38252 6.16528 5.73215 5.81565C6.08178 5.46602 6.52724 5.22791 7.01219 5.13145C7.49715 5.03499 7.99981 5.0845 8.45663 5.27372C8.91344 5.46294 9.30389 5.78337 9.57859 6.19449C9.8533 6.60561 9.99992 7.08896 9.99992 7.58341C9.99992 8.24646 9.73653 8.88234 9.26769 9.35118C8.79884 9.82002 8.16296 10.0834 7.49992 10.0834ZM15.6166 10.3501C16.1499 9.74952 16.4983 9.00763 16.6198 8.2137C16.7412 7.41977 16.6307 6.60764 16.3014 5.87508C15.9721 5.14252 15.4381 4.52074 14.7636 4.0846C14.0892 3.64846 13.3031 3.41653 12.4999 3.41675C12.2789 3.41675 12.0669 3.50455 11.9107 3.66083C11.7544 3.81711 11.6666 4.02907 11.6666 4.25008C11.6666 4.4711 11.7544 4.68306 11.9107 4.83934C12.0669 4.99562 12.2789 5.08341 12.4999 5.08341C13.163 5.08341 13.7988 5.34681 14.2677 5.81565C14.7365 6.28449 14.9999 6.92037 14.9999 7.58341C14.9987 8.02111 14.8827 8.45083 14.6633 8.8296C14.4439 9.20836 14.129 9.5229 13.7499 9.74175C13.6264 9.81301 13.5232 9.9148 13.4502 10.0374C13.3773 10.1599 13.337 10.2992 13.3333 10.4417C13.3298 10.5832 13.3624 10.7232 13.428 10.8486C13.4936 10.974 13.59 11.0806 13.7083 11.1584L14.0333 11.3751L14.1416 11.4334C15.1461 11.9098 15.9935 12.6634 16.5841 13.6053C17.1746 14.5473 17.4837 15.6384 17.4749 16.7501C17.4749 16.9711 17.5627 17.1831 17.719 17.3393C17.8753 17.4956 18.0872 17.5834 18.3083 17.5834C18.5293 17.5834 18.7412 17.4956 18.8975 17.3393C19.0538 17.1831 19.1416 16.9711 19.1416 16.7501C19.1484 15.4713 18.8281 14.212 18.2111 13.0918C17.5942 11.9716 16.701 11.0278 15.6166 10.3501Z" fill="#6B7280"></path></svg>